#!OML:ASF F:\VICON\USERDATA\INSTALL\rory3\rory3.ASF
:FULLY-SPECIFIED
:DEGREES
1636
root 4.36178 18.4247 3.13378 -6.19308 2.84062 -3.63642
lowerback 7.26333 4.02574 -5.80371
upperback 2.69394 4.90424 -2.26379
thorax -1.55288 2.43564 0.475213
lowerneck -4.49141 -2.74345 -8.7761
upperneck 11.1142 -3.44289 4.68854
head 4.2946 -1.80885 2.69688
rclavicle -2.68359e-014 6.36111e-014
rhumerus -31.2703 31.6214 -97.3168
rradius 38.5074
rwrist 12.792
rhand -0.563689 3.71343
rfingers 7.12502
rthumb 25.0503 -24.6638
lclavicle -2.68359e-014 6.36111e-014
lhumerus -33.7584 -24.7455 92.6126
lradius 88.4973
lwrist -1.7558
lhand 28.6988 57.471
lfingers 7.12502
lthumb 52.5334 77.2544
rfemur -17.609 -3.42824 9.12125
rtibia 65.5151
rfoot 7.32273 -18.7567
rtoes 6.96617
lfemur -11.6994 -6.26525 -15.462
ltibia 36.8462
lfoot -15.9394 4.48855
ltoes -10.102
1637
root 4.40777 18.446 3.15165 -6.40651 2.67764 -3.78207
lowerback 7.29381 3.9468 -5.65887
upperback 2.62206 4.80433 -2.22461
thorax -1.63127 2.38875 0.440418
lowerneck -4.34517 -2.72198 -8.60229
upperneck 11.599 -3.45503 4.72647
head 4.41579 -1.8128 2.68199
rclavicle 4.55217e-014 -1.90833e-014
rhumerus -30.6637 31.0805 -96.3633
rradius 38.6932
rwrist 15.8541
rhand -1.14269 4.69369
rfingers 7.12502
rthumb 24.4954 -23.7598
lclavicle 4.55217e-014 -1.90833e-014
lhumerus -33.4936 -24.4689 92.2071
lradius 89.4003
lwrist -1.24766
lhand 28.3269 55.8911
lfingers 7.12502
lthumb 52.1967 75.8792
rfemur -17.7545 -3.14327 9.14614
rtibia 64.8754
rfoot 6.62077 -18.868
rtoes 6.62388
lfemur -11.1461 -6.33116 -15.5055
ltibia 36.5315
lfoot -15.9316 4.65209
ltoes -9.4097
1638
root 4.45172 18.4682 3.16569 -6.5797 2.35635 -3.94102
lowerback 7.28552 3.89489 -5.48578
upperback 2.52153 4.74373 -2.20258
thorax -1.71649 2.36181 0.370209
lowerneck -4.24814 -2.66477 -8.45434
upperneck 12.2439 -3.42736 4.85794
head 4.59327 -1.79355 2.70264
rclavicle 2.18663e-015 -3.18055e-014
rhumerus -29.9599 30.7799 -95.4121
rradius 38.9454
rwrist 17.8074
rhand -0.538429 5.64495
rfingers 7.12502
rthumb 25.0746 -22.7289
lclavicle 2.18663e-015 -3.18055e-014
lhumerus -33.0851 -24.1344 91.6696
lradius 90.3399
lwrist -1.06517
lhand 27.9209 54.8234
lfingers 7.12502
lthumb 51.8283 75.0304
rfemur -17.9759 -2.70145 9.24358
rtibia 64.1162
rfoot 6.02822 -19.291
rtoes 6.78112
lfemur -10.5714 -6.32677 -15.5242
ltibia 36.1775
lfoot -15.8548 4.9448
ltoes -8.85097
1639
root 4.49673 18.4928 3.18179 -6.75453 2.0735 -4.11
lowerback 7.23825 3.81664 -5.27943
upperback 2.45414 4.65522 -2.19268
thorax -1.74113 2.31945 0.276225
lowerneck -4.27862 -2.59825 -8.46501
upperneck 12.9999 -3.39945 5.24246
head 4.83287 -1.7655 2.82808
rclavicle -3.48867e-014 1.27222e-014
rhumerus -29.0515 30.7335 -94.4142
rradius 39.1613
rwrist 18.5684
rhand 0.750393 6.51094
rfingers 7.12502
rthumb 26.3089 -21.6846
lclavicle -3.48867e-014 1.27222e-014
lhumerus -32.4972 -23.6562 90.9762
lradius 91.3137
lwrist -1.22934
lhand 27.855 54.1772
lfingers 7.12502
lthumb 51.7686 74.4193
rfemur -18.093 -2.30008 9.35364
rtibia 63.2549
rfoot 5.43764 -19.9435
rtoes 8.14333
lfemur -9.96274 -6.37355 -15.5225
ltibia 35.7497
lfoot -15.8373 5.16432
ltoes -8.22309
1640
root 4.5406 18.5152 3.19979 -6.87179 1.7555 -4.27071
lowerback 7.03106 3.73477 -5.09235
upperback 2.43086 4.57458 -2.17253
thorax -1.6346 2.2783 0.215391
lowerneck -4.30876 -2.58056 -8.49925
upperneck 13.6862 -3.43637 5.60815
head 5.05657 -1.76917 2.94884
rclavicle -3.73715e-014 5.88403e-014
rhumerus -27.9809 30.9207 -93.2708
rradius 39.4772
rwrist 18.9187
rhand 1.77102 6.52143
rfingers 7.12502
rthumb 27.2856 -21.5244
lclavicle -3.73715e-014 5.88403e-014
lhumerus -31.5625 -23.062 90.1711
lradius 92.1505
lwrist -1.85772
lhand 27.6993 53.0634
lfingers 7.12502
lthumb 51.6271 73.3879
rfemur -18.2402 -1.88284 9.48606
rtibia 62.3124
rfoot 4.70811 -20.6779
rtoes 8.76
lfemur -9.42641 -6.39365 -15.4917
ltibia 35.2227
lfoot -15.8813 5.34976
ltoes -7.44043
1641
root 4.58293 18.5336 3.21558 -6.96826 1.48599 -4.28436
lowerback 6.81527 3.65931 -5.04669
upperback 2.39534 4.49137 -2.18871
thorax -1.54366 2.23607 0.194688
lowerneck -4.29717 -2.62326 -8.42117
upperneck 14.3671 -3.54546 5.77457
head 5.27317 -1.81356 2.98503
rclavicle 2.75317e-014 2.8625e-014
rhumerus -26.8391 30.779 -91.9115
rradius 39.9822
rwrist 19.4915
rhand 3.04477 6.3638
rfingers 7.12502
rthumb 28.5033 -21.4843
lclavicle 2.75317e-014 2.8625e-014
lhumerus -30.5807 -22.5246 89.3387
lradius 93.0376
lwrist -2.77373
lhand 27.5519 52.0898
lfingers 7.12502
lthumb 51.4931 72.4918
rfemur -18.4091 -1.53728 9.44374
rtibia 61.3047
rfoot 3.72226 -21.5906
rtoes 9.18091
lfemur -8.92446 -6.43042 -15.6246
ltibia 34.6111
lfoot -15.8673 5.59284
ltoes -7.16901
1642
root 4.62485 18.5536 3.22792 -7.09351 1.30685 -4.22629
lowerback 6.75676 3.55568 -5.02139
upperback 2.30676 4.35418 -2.26011
thorax -1.58986 2.16974 0.120134
lowerneck -4.26445 -2.65949 -8.34004
upperneck 15.1052 -3.65646 5.96879
head 5.50526 -1.85637 3.03041
rclavicle -1.92821e-014 4.92986e-014
rhumerus -25.7129 30.3252 -90.5089
rradius 40.6426
rwrist 19.8748
rhand 4.84447 6.58159
rfingers 7.12502
rthumb 30.2216 -20.9653
lclavicle -1.92821e-014 4.92986e-014
lhumerus -29.6872 -21.9723 88.4283
lradius 94.0679
lwrist -3.81584
lhand 27.5067 51.8148
lfingers 7.12502
lthumb 51.452 72.2404
rfemur -18.5008 -1.25528 9.30069
rtibia 60.2082
rfoot 2.62669 -22.5064
rtoes 10.6312
lfemur -8.39338 -6.49723 -15.8706
ltibia 33.99
lfoot -15.7412 5.89588
ltoes -7.16491
1643
root 4.6658 18.5736 3.24127 -7.13497 1.1202 -4.21705
lowerback 6.60506 3.42661 -4.94616
upperback 2.20133 4.19226 -2.33971
thorax -1.59718 2.09077 0.017035
lowerneck -4.16128 -2.68803 -8.26863
upperneck 15.7446 -3.7741 6.24271
head 5.6972 -1.89715 3.10318
rclavicle 3.49364e-014 -9.54166e-015
rhumerus -24.5086 29.8407 -89.1024
rradius 41.3841
rwrist 19.9158
rhand 6.45664 6.45316
rfingers 7.12502
rthumb 31.7583 -20.801
lclavicle 3.49364e-014 -9.54166e-015
lhumerus -28.5533 -21.2727 87.4125
lradius 95.0231
lwrist -5.00526
lhand 27.471 52.5957
lfingers 7.12502
lthumb 51.4195 73.0399
rfemur -18.6605 -0.960764 9.21753
rtibia 59.0168
rfoot 1.89054 -23.1524
rtoes 10.7415
lfemur -7.92998 -6.58835 -16.0582
ltibia 33.3905
lfoot -15.642 6.22603
ltoes -6.88265
1644
root 4.70505 18.5945 3.25061 -7.113 0.981975 -4.34843
lowerback 6.47682 3.27594 -4.78576
upperback 2.06077 4.00493 -2.34931
thorax -1.65308 2.00012 -0.0623456
lowerneck -4.07065 -2.73993 -8.27812
upperneck 16.3729 -3.92106 6.536
head 5.89325 -1.95411 3.19415
rclavicle -2.68856e-014 1.59028e-014
rhumerus -23.2977 29.3445 -87.5847
rradius 42.2852
rwrist 19.7405
rhand 7.51028 6.03072
rfingers 7.12502
rthumb 32.7613 -21.0196
lclavicle -2.68856e-014 1.59028e-014
lhumerus -27.3182 -20.4634 86.4019
lradius 95.9319
lwrist -6.39094
lhand 27.5029 53.9807
lfingers 7.12502
lthumb 51.4486 74.4083
rfemur -18.8865 -0.693813 9.30866
rtibia 57.7662
rfoot 1.47009 -23.727
rtoes 9.58121
lfemur -7.595 -6.73058 -16.0632
ltibia 32.8531
lfoot -15.5412 6.4888
ltoes -6.19895
1645
root 4.74212 18.6126 3.2584 -7.15685 1.01156 -4.21712
lowerback 6.4304 3.10241 -4.95004
upperback 1.98243 3.76235 -2.39716
thorax -1.70672 1.88101 -0.000160183
lowerneck -4.07178 -2.83226 -8.25909
upperneck 16.9559 -4.10066 6.70219
head 6.09259 -2.03114 3.23636
rclavicle 6.95746e-016 -7.95139e-015
rhumerus -22.0151 28.7937 -85.9357
rradius 43.343
rwrist 19.4037
rhand 7.77177 5.54886
rfingers 7.12502
rthumb 33.01 -21.4492
lclavicle 6.95746e-016 -7.95139e-015
lhumerus -25.8026 -19.5296 85.3345
lradius 96.8702
lwrist -7.92747
lhand 26.6663 52.6708
lfingers 7.12502
lthumb 50.6864 73.5255
rfemur -18.9657 -0.636596 9.04161
rtibia 56.454
rfoot 1.05454 -24.2694
rtoes 9.21764
lfemur -7.28531 -6.77082 -16.3682
ltibia 32.4717
lfoot -15.4128 6.60634
ltoes -6.12293
